HIERARCHY
ROOT Hips
{
  OFFSET 43.0842 91.1655 101.099
  CHANNELS 6 Xposition Yposition Zposition Zrotation Xrotation Yrotation
  JOINT LeftUpLeg
  {
    OFFSET 8.64259 1.95398 -2.38835
    CHANNELS 3 Zrotation Xrotation Yrotation
    JOINT LeftLeg
    {
      OFFSET 43.7702 0 0
      CHANNELS 3 Zrotation Xrotation Yrotation
      JOINT LeftFoot
      {
        OFFSET 40.6238 0 0
        CHANNELS 3 Zrotation Xrotation Yrotation
        JOINT LeftToeBase
        {
          OFFSET 12.7242 0 0
          CHANNELS 3 Zrotation Xrotation Yrotation
          End Site
          {
            OFFSET 0 0 0
          }
        }
      }
    }
  }
  JOINT RightUpLeg
  {
    OFFSET -8.2249 1.95398 -2.59336
    CHANNELS 3 Zrotation Xrotation Yrotation
    JOINT RightLeg
    {
      OFFSET 43.5653 0 0
      CHANNELS 3 Zrotation Xrotation Yrotation
      JOINT RightFoot
      {
        OFFSET 40.6238 0 0
        CHANNELS 3 Zrotation Xrotation Yrotation
        JOINT RightToeBase
        {
          OFFSET 12.7242 0 0
          CHANNELS 3 Zrotation Xrotation Yrotation
          End Site
          {
            OFFSET 0 0 0
          }
        }
      }
    }
  }
  JOINT Spine
  {
    OFFSET 0.165834 0.87714 6.61349
    CHANNELS 3 Zrotation Xrotation Yrotation
    JOINT Spine1
    {
      OFFSET 7.38963 1.71661e-005 0
      CHANNELS 3 Zrotation Xrotation Yrotation
      JOINT Spine2
      {
        OFFSET 11.9445 1.14441e-005 0
        CHANNELS 3 Zrotation Xrotation Yrotation
        JOINT Spine3
        {
          OFFSET 14.7254 4.19617e-005 0
          CHANNELS 3 Zrotation Xrotation Yrotation
          JOINT Spine4
          {
            OFFSET 10.9679 0 0
            CHANNELS 3 Zrotation Xrotation Yrotation
            JOINT RightShoulder
            {
              OFFSET 2.46616 -1.6653 3.69651
              CHANNELS 3 Zrotation Xrotation Yrotation
              JOINT RightArm
              {
                OFFSET 13.0012 0 0
                CHANNELS 3 Zrotation Xrotation Yrotation
                JOINT RightForeArm
                {
                  OFFSET 28.7848 1.52588e-005 0
                  CHANNELS 3 Zrotation Xrotation Yrotation
                  JOINT RightHand
                  {
                    OFFSET 26.5688 1.52588e-005 0
                    CHANNELS 3 Zrotation Xrotation Yrotation
                    End Site
                    {
                      OFFSET 0 0 0
                    }
                  }
                }
              }
            }
            JOINT LeftShoulder
            {
              OFFSET 2.38034 -1.29275 -3.7523
              CHANNELS 3 Zrotation Xrotation Yrotation
              JOINT LeftArm
              {
                OFFSET 16.3182 6.10351e-005 0
                CHANNELS 3 Zrotation Xrotation Yrotation
                JOINT LeftForeArm
                {
                  OFFSET 27.0901 0 0
                  CHANNELS 3 Zrotation Xrotation Yrotation
                  JOINT LeftHand
                  {
                    OFFSET 24.5451 1.52588e-005 0
                    CHANNELS 3 Zrotation Xrotation Yrotation
                    End Site
                    {
                      OFFSET 0 0 0
                    }
                  }
                }
              }
            }
            JOINT Neck
            {
              OFFSET 5.0226 -0.0266342 0
              CHANNELS 3 Zrotation Xrotation Yrotation
              JOINT Head
              {
                OFFSET 6.69364 2.86102e-005 0
                CHANNELS 3 Zrotation Xrotation Yrotation
                End Site
                {
                  OFFSET 0 0 0
                }
              }
            }
          }
        }
      }
    }
  }
}
MOTION
Frames:	12
Frame Time:	0.0333333
29.2611 91.7533 150.042 -89.3732 -79.3234 -92.3818 -172.347 -3.9855 95.7027 -27.5379 12.3752 0.532319 63.3626 0.425384 0.376699 39.531 7.22541 13.9993 -177.855 27.3986 89.5242 -38.6185 -8.33508 -3.80751 72.1286 -11.4795 -2.61752 32.6045 -2.76628 2.00326 -1.98612 6.8943 -89.7481 13.1087 -3.82105 0.975661 1.44291 -3.7744 1.1431 -21.1375 -3.93734 -0.219612 -1.12484 -3.93735 -0.21962 98.3368 -43.6291 -88.4709 19.4312 -2.74355 -34.4593 -1.97704 -4.11035 -136.885 -6.80765 -0.163714 7.16896 -95.9499 -49.8062 69.8486 -42.2269 -26.3549 -70.9962 -32.32 37.9956 -97.5297 14.7773 2.01291 -5.77381 -2.08571 -0.69962 1.41311 -8.94209 -1.07173 4.90614 
29.3379 91.7118 148.911 -79.5851 -85.6773 -83.177 -171.802 -2.48898 97.1141 -25.7393 11.0647 -0.0462226 64.1328 1.01244 2.53941 39.1963 6.03647 15.2754 -179.883 28.1116 87.7198 -38.064 -8.01268 -2.81408 71.5852 -11.1405 -5.01282 33.256 -3.4424 3.10344 -1.94851 6.88322 -89.7315 13.1312 -3.73822 1.00023 1.46516 -3.69058 1.16398 -21.1133 -3.86576 -0.171177 -1.10064 -3.86577 -0.171184 98.2427 -42.3269 -88.7482 22.0077 2.03681 -38.0582 -1.44352 -6.88165 -135.651 -7.73709 -0.488492 7.01949 -96.3448 -50.4833 69.4808 -36.6521 -21.3317 -67.8046 -26.3094 33.8531 -101.076 13.7739 1.73251 -3.12958 -3.27549 -1.51442 2.93914 -8.50655 -1.9655 3.28362 
29.5287 91.662 147.653 61.9317 -88.2327 57.8788 -170.968 -1.22588 98.7896 -25.9802 11.4523 -0.674298 63.2979 0.0567716 5.32252 37.8756 3.55237 15.877 177.978 28.3388 86.0295 -37.4772 -6.44731 -1.85906 71.559 -11.0713 -5.52042 33.1621 -3.35647 2.9791 -1.82423 6.95258 -89.6326 12.9913 -3.44522 1.15425 1.32425 -3.39107 1.3049 -21.2475 -3.63264 0.0641345 -1.23487 -3.63264 0.0641368 97.9264 -42.5122 -89.2757 23.9958 5.93857 -41.3527 -2.08164 -7.6097 -135.267 -8.54925 -0.701808 7.9749 -96.6493 -50.4968 69.0417 -33.104 -18.0542 -66.1358 -24.1132 32.3191 -100.871 15.7608 2.06437 -4.87977 -4.82988 -2.73646 2.25297 -7.57437 -3.02662 2.79062 
29.7279 91.7172 146.281 86.0836 -83.2978 82.0649 -169.979 0.288845 100.744 -27.7096 12.1657 -1.0501 61.7834 -2.34214 6.93037 35.7642 0.704229 14.9091 176.532 27.6931 85.0105 -36.0758 -4.30907 -1.2492 71.3064 -10.935 -5.84931 33.4083 -3.41826 2.76356 -1.66647 7.04313 -89.6639 12.8068 -3.14843 1.0488 1.13912 -3.09922 1.18645 -21.4266 -3.31794 0.0530802 -1.41391 -3.31794 0.0530645 97.4613 -41.1905 -90.2157 26.7192 10.7274 -44.8049 -2.31144 -9.45559 -134.3 -9.66091 -1.0601 8.43435 -97.3263 -51.2556 68.3023 -29.0687 -14.2579 -64.3351 -19.1778 28.929 -102.972 17.3209 2.23491 -5.32802 -6.61098 -3.6972 3.56256 -7.17911 -4.01053 0.635388 
29.9652 91.8426 144.969 89.2119 -78.2609 85.2042 -169.318 1.60339 102.342 -28.8577 13.1789 -1.0201 59.7082 -5.01785 5.63961 34.6752 0.0701457 13.1536 175.262 26.7125 83.9837 -34.3437 -2.53461 -0.759301 71.3927 -11.0605 -6.32823 32.4542 -2.54943 1.5618 -1.46622 7.13976 -89.5924 12.6105 -2.71816 1.13175 0.941781 -2.66572 1.25034 -21.6158 -2.93254 0.261874 -1.60317 -2.93253 0.261868 97.5854 -42.1437 -89.8951 28.2617 14.706 -48.3021 -1.74063 -11.2259 -133.524 -11.6461 -1.75161 8.25502 -95.9731 -49.6389 69.7624 -28.2527 -11.1588 -65.1202 -15.7696 27.9861 -101.689 19.0073 2.41292 -5.84603 -8.64783 -5.15909 0.164431 -6.24102 -5.214 2.03188 
30.4928 92.0164 143.74 89.5133 -73.7494 85.75 -169.118 2.74293 103.427 -29.4299 14.5647 -0.862071 58.4119 -6.43208 4.36732 33.2279 -2.14716 12.9923 174.135 25.8226 83.0038 -32.4239 -0.55671 -0.266538 71.3193 -11.0487 -6.33201 32.0141 -2.18711 1.16499 -1.31033 7.13309 -89.6342 12.6206 -2.42835 1.01508 0.951437 -2.38131 1.12101 -21.6015 -2.62108 0.237881 -1.58882 -2.62109 0.237874 97.2598 -42.1409 -90.4542 30.2803 18.6603 -50.9635 -3.01624 -12.2789 -133.069 -12.5992 -2.08308 8.05168 -96.0954 -49.808 69.6358 -24.7694 -7.67168 -64.085 -12.444 24.6711 -102.576 17.4822 2.2346 -4.84157 -11.8984 -5.95383 -1.14241 -4.25492 -5.94926 1.96862 
31.3002 92.1701 142.417 90.0617 -70.0501 86.785 -168.98 3.03432 104.249 -28.721 14.5751 -0.588141 56.5159 -8.22725 2.07169 33.7129 -1.66008 13.4105 173.389 24.7413 82.2217 -30.4544 -0.0488637 0.092211 70.72 -10.2656 -7.36727 32.6331 -2.35789 0.642841 -1.12846 7.17767 -89.6652 12.5295 -2.0824 0.91013 0.859868 -2.04032 1.00092 -21.6885 -2.25962 0.241919 -1.6758 -2.25962 0.241926 97.3615 -41.7685 -90.3269 32.16 21.4468 -53.3441 -5.45492 -11.1635 -133.247 -12.1514 -1.89938 9.46207 -95.2715 -49.0283 70.6107 -23.314 -5.33501 -64.2544 -10.2075 23.1861 -102.859 17.3926 2.19972 -4.25634 -13.3672 -6.50009 -2.08116 -3.72468 -6.4792 0.563712 
32.3396 92.272 140.895 89.944 -66.2723 87.2541 -169.543 3.17371 104.229 -27.7305 16.889 -0.0286634 56.003 -7.99838 0.753752 35.7574 1.09318 14.278 172.526 23.6892 81.2986 -28.2099 1.41287 0.503425 70.4667 -9.9192 -7.27724 32.7042 -1.85485 -1.06986 -1.15356 7.16596 -89.8248 12.5497 -2.20817 0.60645 0.880412 -2.17932 0.703081 -21.6697 -2.28829 -0.0855793 -1.65706 -2.28829 -0.085569 97.0004 -39.9809 -91.1695 35.2048 23.0131 -55.8156 -8.53608 -11.3811 -133.159 -13.7254 -2.45179 10.0453 -95.5467 -50.5703 70.6738 -19.2387 -3.49129 -62.6988 -9.08423 20.2199 -104.173 16.9526 2.14493 -4.07082 -14.0546 -6.58189 1.28155 -4.35626 -6.65795 -3.23079 
33.6736 92.385 139.294 90.3986 -63.2405 88.0922 -170.323 2.84402 103.544 -25.8465 17.037 0.320245 56.5893 -7.07074 0.786131 37.0083 3.607 13.4338 171.63 22.4813 80.0582 -25.9185 2.00899 0.779095 69.2354 -8.82782 -6.66926 32.7176 -1.62187 -1.82068 -0.913987 7.21762 -89.801 12.4446 -1.72144 0.594645 0.77461 -1.6936 0.669841 -21.7697 -1.82054 0.04962 -1.75708 -1.82055 0.0496212 96.8965 -42.4975 -91.0325 34.2864 27.91 -57.1854 -7.63058 -12.0047 -133.221 -13.4967 -2.36948 10.2243 -94.8611 -49.0911 71.2431 -19.9694 -1.68554 -63.6429 -9.08814 21.048 -102.353 17.2009 2.22703 -5.35017 -15.3753 -7.66501 -3.36252 -3.41173 -7.72495 -1.5204 
35.0451 92.3876 137.491 90.0618 -60.5331 88.2022 -170.621 3.53119 102.917 -24.7045 17.2511 -0.0152478 57.8954 -5.2678 1.90088 37.339 4.5297 12.7174 170.964 21.8097 78.832 -23.6617 3.10624 0.98821 67.5848 -7.30408 -6.25546 31.5441 -1.13126 -1.26657 -0.771372 7.20782 -89.9201 12.4613 -1.49457 0.331135 0.791107 -1.47856 0.396599 -21.7509 -1.52499 -0.133459 -1.73825 -1.52499 -0.133458 97.2451 -41.9689 -90.5005 35.8581 30.7752 -58.3567 -7.69107 -12.6246 -132.66 -12.626 -2.07077 9.21197 -95.426 -49.6715 70.58 -19.6682 -1.65764 -63.4151 -7.09362 21.0874 -102.956 16.5341 2.05758 -3.24525 -16.5299 -8.34214 -3.7515 -2.73753 -8.47669 -2.26242 
36.5004 92.3075 135.598 89.7962 -58.6324 88.3261 -170.82 4.22058 101.923 -24.2267 14.9863 -0.41382 59.4568 -3.0718 2.52987 37.1973 5.00464 11.4666 170.697 21.1793 77.6169 -21.2784 3.53559 0.967781 65.8303 -5.70064 -6.2731 30.1795 -0.448688 -0.964566 -0.619948 7.13733 -89.9466 12.6014 -1.20592 0.24741 0.930951 -1.19387 0.300247 -21.6087 -1.22454 -0.126519 -1.59608 -1.22453 -0.126516 97.242 -43.1959 -90.3633 35.8171 33.8948 -58.3284 -7.19528 -13.4113 -133.005 -12.6622 -2.08493 9.18042 -95.2389 -49.5727 70.8262 -18.2402 0.818287 -61.995 -7.0825 18.8169 -103.418 15.5443 1.85931 -1.70101 -17.9959 -8.75519 -5.08769 -2.42718 -8.9816 -2.23656 
38.0746 92.2461 133.688 90.4457 -57.0019 88.857 -170.729 4.83728 100.705 -24.7049 15.4629 -1.23012 60.563 -1.65722 5.04032 37.2445 5.59991 10.4885 170.185 20.2039 75.9591 -19.0117 2.59458 0.939876 64.1331 -4.02395 -6.65774 27.899 1.16397 -1.75531 -0.531587 7.19387 -90.0082 12.4873 -1.06002 0.10611 0.816723 -1.05432 0.152662 -21.7218 -1.0429 -0.21741 -1.70914 -1.0429 -0.217427 97.2672 -42.3738 -90.4162 37.1762 35.8703 -58.3339 -7.22469 -13.3791 -133.251 -12.9586 -2.18788 9.28432 -95.6468 -50.3773 70.4688 -17.0112 1.59224 -60.9299 -7.09973 17.8104 -103.775 15.6057 1.9337 -2.89714 -18.2646 -9.15752 -4.02677 -2.3334 -9.41002 -3.71023 
